User Type,Username,Date,Text
,elax666,2009-08-19T20:55Z,Thanks a lot shelia6! I´ve been looking 4 this 1 so thanks 4 sharing!
,joshper,2009-09-21T18:36Z,This is a great series. Thanks for uploading.
,allmypeople,2009-10-10T23:52Z,AMAZING SERIES. I had no idea there was so much actual footage from the war. THANK YOU FOR SHARING!!!
,phixartor,2009-10-23T20:30Z,Perfect documentary..! ;) But Seed Please..! :(
,fleetkid,2009-12-14T12:01Z,"Awesome. Thanks a lot. :) 
Most Unbiased documentary till date"
,KingJeep97,2010-01-08T23:46Z,im downloading at 0.5 kb... this is gonna take a month. SEEEDDD
,Desolator4u,2010-01-25T03:30Z, Looking forward to increasing my knowledge of WWII with this. Thanks.
,tnkie,2010-02-25T14:56Z,Slow...
,PREDATOR_SAS,2010-03-13T22:32Z,"can any one tell me what is the resolution...???
and any thing about the quality...??"
,rippervanwinkle,2010-04-25T04:42Z,"Video specifications 1st episode, as you can see it's not great; very small picture size and low video bitrate.  Even worse is that the aspect ratio is very wrong.  It should be 4:3 but the files are 3:2.  Subjectively the picture is soft with obvious distortion due to the bad AR, and there are other artefacts associated with low bitrate.  Overall not a good release but maybe worth watching anyway for the content.

General
Complete name                    : WW Ep1-Vol000.avi
Format                           : AVI
Format/Info                      : Audio Video Interleave
File size                        : 284 MiB
Duration                         : 51mn 51s
Overall bit rate                 : 765 Kbps

Video
ID                               : 0
Format                           : MPEG-4 Visual
Format profile                   : Advanced Simple@L5
Format settings, BVOP            : Yes
Format settings, QPel            : No
Format settings, GMC             : No warppoints
Format settings, Matrix          : Default (H.263)
Muxing mode                      : Packed bitstream
Codec ID                         : XVID
Codec ID/Hint                    : XviD
Duration                         : 51mn 51s
Bit rate                         : 562 Kbps
Width                            : 352 pixels
Height                           : 240 pixels
Display aspect ratio             : 3:2
Frame rate                       : 29.970 fps
Resolution                       : 8 bits
Colorimetry                      : 4:2:0
Scan type                        : Progressive
Bits/(Pixel*Frame)               : 0.222
Stream size                      : 208 MiB (73%)
Writing library                  : XviD 1.0.1 (UTC 2004-06-05)

Audio
ID                               : 1
Format                           : MPEG Audio
Format version                   : Version 1
Format profile                   : Layer 3
Codec ID                         : 55
Codec ID/Hint                    : MP3
Duration                         : 51mn 51s
Bit rate mode                    : Constant
Bit rate                         : 192 Kbps
Channel(s)                       : 2 channels
Sampling rate                    : 44.1 KHz
Video delay                      : 26ms
Stream size                      : 71.2 MiB (25%)
Alignment                        : Split accross interleaves
Interleave, duration             : 33 ms (1.00 video frame)
Title                            : Audio Stream"
,DarK_1988,2010-06-07T09:55Z,This is one Slow Torrent
,Ask_me,2010-06-28T10:41Z,Thanks.............!!!
,scottycujo,2010-08-29T07:16Z,"Big sucker, if someone (or a few of ya's) seed for me I'd much appreciate."
,steveukok,2010-11-20T15:04Z,"It's bound to be slow, it's over 30 hours of footage! Hold in there it worth the wait.

tahnks for uploading this."
,vvegib,2010-12-13T04:32Z,"Nice quick download and good enough quality, thanks a bunch."
,mandarp,2011-01-29T14:49Z,can the episode size be shrunk to 175mb average ?
,hookstala,2011-01-29T19:04Z,Seed you leeching SOB's!
,kage_dk,2011-03-20T11:35Z,seeeeeeeeeeeeeeeeeeeeddddddddddddd
,demmar,2011-09-28T12:13Z,any site for english subtitles please??
,darrencaf,2012-02-21T22:00Z,This was not done by the BBC in 1974 but was commissioned by Thames Television in 1969 and was shown in 1973-74
